<svg width="29" height="23" viewBox="0 0 29 23" fill="none" xmlns="http://www.w3.org/2000/svg">
<path d="M28.0938 11.4238C28.0938 11.0527 27.9473 10.7256 27.6543 10.4424L17.9424 0.759766C17.7861 0.603516 17.625 0.491211 17.459 0.422852C17.3027 0.354492 17.1367 0.320312 16.9609 0.320312C16.5996 0.320312 16.2969 0.442383 16.0527 0.686523C15.8086 0.920898 15.6865 1.21875 15.6865 1.58008C15.6865 1.75586 15.7158 1.92676 15.7744 2.09277C15.833 2.24902 15.9209 2.38574 16.0381 2.50293L19.3193 5.84277L25.1348 11.1455L25.4277 10.4131L20.7109 10.1201H2.18066C1.7998 10.1201 1.4873 10.2422 1.24316 10.4863C1.00879 10.7305 0.891602 11.043 0.891602 11.4238C0.891602 11.8047 1.00879 12.1172 1.24316 12.3613C1.4873 12.6055 1.7998 12.7275 2.18066 12.7275H20.7109L25.4277 12.4346L25.1348 11.7168L19.3193 17.0049L16.0381 20.3447C15.9209 20.4619 15.833 20.6035 15.7744 20.7695C15.7158 20.9258 15.6865 21.0918 15.6865 21.2676C15.6865 21.6289 15.8086 21.9268 16.0527 22.1611C16.2969 22.4053 16.5996 22.5273 16.9609 22.5273C17.3125 22.5273 17.6299 22.3906 17.9131 22.1172L27.6543 12.4053C27.9473 12.1221 28.0938 11.7949 28.0938 11.4238Z" fill="white"/>
</svg>
